<?xml version="1.0" encoding="iso-8859-1"?>
<!-- Uploaded to: SVG Repo, www.svgrepo.com, Generator: SVG Repo Mixer Tools -->
<svg fill="#000000" height="800px" width="800px" version="1.1" id="Layer_1" xmlns="http://www.w3.org/2000/svg" xmlns:xlink="http://www.w3.org/1999/xlink" 
	 viewBox="0 0 501.333 501.333" xml:space="preserve">
<g>
	<g>
		<g>
			<path d="M490.667,282.669c-5.867,0-10.667,4.8-10.667,10.667v23.04c-20.587-26.773-54.933-44.373-90.667-44.373
				c-45.227,0.107-85.547,28.693-100.693,71.36c-1.92,5.547,0.96,11.627,6.507,13.653c5.547,1.92,11.627-0.96,13.653-6.507
				c12.053-34.133,44.373-57.067,80.64-57.067c32.107,0,62.72,17.28,78.293,42.667h-30.4c-5.867,0-10.667,4.8-10.667,10.667
				c0,5.867,4.8,10.667,10.667,10.667h53.333c5.867,0,10.667-4.8,10.667-10.667v-53.333
				C501.333,287.469,496.533,282.669,490.667,282.669z"/>
			<path d="M494.187,411.095c-5.547-1.92-11.627,0.96-13.653,6.507c-12.053,34.133-44.373,57.067-80.64,57.067
				c-32.107,0-62.613-17.28-78.293-42.667H352c5.867,0,10.667-4.8,10.667-10.667c0-5.867-4.8-10.667-10.667-10.667h-53.333
				c-5.867,0-10.667,4.8-10.667,10.667v53.333c0,5.867,4.8,10.667,10.667,10.667c5.867,0,10.667-4.8,10.667-10.667v-23.04
				c20.587,26.773,54.933,44.373,90.667,44.373c45.227-0.107,85.653-28.693,100.693-71.36
				C502.72,419.095,499.733,413.015,494.187,411.095z"/>
			<path d="M202.667,389.335h-105.6c4.373-5.653,7.573-12.16,9.28-19.093c0.213-0.853,0.32-1.707,0.32-2.56V133.335h320v74.347
				c0,5.333,3.84,10.133,9.067,10.88c6.613,0.96,12.267-4.16,12.267-10.56v-85.333c0-5.867-4.8-10.667-10.667-10.667h-32V69.335
				c0-5.867-4.8-10.667-10.667-10.667H168.533l-30.72-48.427c-1.92-3.093-5.333-5.013-9.067-4.907H10.667
				C4.8,5.335,0,10.135,0,16.002v351.68c0,0.853,0.107,1.707,0.32,2.56c5.76,23.147,25.92,38.827,50.453,39.893
				c0.853,0.32,1.707,0.427,2.56,0.533h149.013c5.333,0,10.133-3.84,10.88-9.067C214.187,394.989,209.067,389.335,202.667,389.335z
				 M85.333,122.669v243.627c-4.8,16.747-20.16,22.72-32,22.72c-11.84,0-27.2-5.973-32-22.72V26.669H122.88l30.72,48.427
				c1.92,3.093,5.333,4.907,9.067,4.907H384v32H96C90.133,112.002,85.333,116.802,85.333,122.669z"/>
		</g>
	</g>
</g>
</svg>